<?xml version="1.0" encoding="iso-8859-1"?>
<!-- Generator: Adobe Illustrator 19.0.0, SVG Export Plug-In . SVG Version: 6.00 Build 0)  -->
<svg version="1.1" id="Capa_1" xmlns="http://www.w3.org/2000/svg" xmlns:xlink="http://www.w3.org/1999/xlink" x="0px" y="0px"
	 viewBox="0 0 480.003 480.003" style="enable-background:new 0 0 480.003 480.003;" xml:space="preserve">
<g>
	<g>
		<g>
			<path d="M456.002,368.003h-432c-13.255,0-24,10.745-24,24v64c0,13.255,10.745,24,24,24h432c13.255,0,24-10.745,24-24v-64
				C480.002,378.748,469.256,368.003,456.002,368.003z M464.002,456.003c0,4.418-3.582,8-8,8h-432c-4.418,0-8-3.582-8-8v-64
				c0-4.418,3.582-8,8-8h432c4.418,0,8,3.582,8,8V456.003z"/>
			<path d="M64.002,392.003c-17.673,0-32,14.327-32,32c0,17.673,14.327,32,32,32s32-14.327,32-32
				C96.002,406.33,81.675,392.003,64.002,392.003z M64.002,440.003c-8.837,0-16-7.163-16-16s7.163-16,16-16s16,7.163,16,16
				S72.838,440.003,64.002,440.003z"/>
			<path d="M440.002,416.003h-320c-4.418,0-8,3.582-8,8s3.582,8,8,8h320c4.418,0,8-3.582,8-8S444.42,416.003,440.002,416.003z"/>
			<path d="M254.818,327.915l160,24c0.392,0.057,0.788,0.087,1.184,0.088c4.418,0,8-3.582,8-8v-168c0-4.418-3.582-8-8-8h-160
				c-4.418,0-8,3.582-8,8v144C248.002,323.964,250.9,327.329,254.818,327.915z M264.002,184.003h144v150.712l-144-21.6V184.003z"/>
			<path d="M256.002,160.003h160c4.418,0,8-3.582,8-8v-144c0-0.538-0.054-1.075-0.162-1.602c-0.884-4.329-5.109-7.122-9.438-6.238
				l-160,32c-3.725,0.76-6.401,4.038-6.4,7.84v112C248.002,156.421,251.583,160.003,256.002,160.003z M264.002,46.563l144-28.8
				v126.24h-144V46.563z"/>
			<path d="M62.818,295.915l160,24c0.392,0.057,0.788,0.087,1.184,0.088c4.418,0,8-3.582,8-8v-136c0-4.418-3.582-8-8-8h-160
				c-4.418,0-8,3.582-8,8v112C56.002,291.964,58.9,295.329,62.818,295.915z M72.002,184.003h144v118.712l-144-21.6V184.003z"/>
			<path d="M64.002,160.003h160c4.418,0,8-3.582,8-8v-104c0-0.538-0.054-1.075-0.162-1.602c-0.884-4.329-5.109-7.122-9.438-6.238
				l-160,32c-3.725,0.76-6.401,4.038-6.4,7.84v72C56.002,156.421,59.583,160.003,64.002,160.003z M72.002,86.563l144-28.8v86.24
				h-144V86.563z"/>
		</g>
	</g>
</g>
<g>
</g>
<g>
</g>
<g>
</g>
<g>
</g>
<g>
</g>
<g>
</g>
<g>
</g>
<g>
</g>
<g>
</g>
<g>
</g>
<g>
</g>
<g>
</g>
<g>
</g>
<g>
</g>
<g>
</g>
</svg>
